<?xml version="1.0" encoding="utf-8"?>
<!-- Generator: Adobe Illustrator 25.2.0, SVG Export Plug-In . SVG Version: 6.00 Build 0)  -->
<svg version="1.1" id="Layer_1" xmlns="http://www.w3.org/2000/svg" xmlns:xlink="http://www.w3.org/1999/xlink" x="0px" y="0px"
	 viewBox="0 0 308.8 294.7" style="enable-background:new 0 0 308.8 294.7;" xml:space="preserve">
<style type="text/css">
	.st0{fill:#151A3E;}
	.st1{fill:#474C72;}
	.st2{fill:none;}
	.st3{fill:#FFFFFF;}
	.st4{fill:#2C3151;}
	.st5{opacity:0.5;fill:#FFFFFF;enable-background:new    ;}
	.st6{fill:none;stroke:#FFFFFF;stroke-width:4;stroke-linecap:round;stroke-linejoin:round;}
	.st7{fill:#F56137;}
	.st8{fill:none;stroke:#FFAB97;stroke-width:2;stroke-linecap:round;stroke-linejoin:round;}
	.st9{fill:#FFC000;}
	.st10{fill:#FFE92D;}
	.st11{fill:none;stroke:#1F033C;stroke-linecap:round;stroke-linejoin:round;}
	.st12{fill:none;stroke:#1F033C;stroke-width:0.58;stroke-linecap:round;stroke-linejoin:round;}
	.st13{fill:#4A6CF7;fill-opacity:0.73;}
	.st14{fill:#88D5ED;}
	.st15{fill:none;stroke:#1F033C;stroke-width:0.79;stroke-linecap:round;stroke-linejoin:round;}
	.st16{opacity:0.1;fill:none;stroke:#FFFFFF;enable-background:new    ;}
	.st17{fill:none;stroke:#1F033C;stroke-width:0.73;stroke-linecap:round;stroke-linejoin:round;}
	.st18{fill:#1F033C;}
	.st19{fill:none;stroke:#1F033C;stroke-width:0.74;stroke-linecap:round;stroke-linejoin:round;}
	.st20{fill:#4A6CF7;}
</style>
<rect x="0.4" y="0.5" class="st0" width="308.4" height="294.2"/>
<path class="st1" d="M99.2,276.5c-4.8-13.9-21.3-20-29.5-32.2c-6.4-9.8-6.9-22.2-1.4-32.5c2.7-4.8,6.5-8.8,9.3-13.5
	c8.6-14.6,5.4-34,14.1-48.5c7.1-11.8,22.1-18.4,35.6-15.5c3.5,0.8,7,2.1,10.5,2.5c4.4,0.5,8.8-0.4,13.2-1
	c10.2-1.5,20.9-1.7,30.4,2.4c6,2.6,11.1,6.8,15.7,11.3c23.7,23,36.8,57,32.6,89.8c-0.7,5.6-1.9,11.1-2.4,16.7
	c-0.7,7.7-0.2,15.5-1.2,23.2c-0.3,2-0.7,4.1-2,5.6c-1.5,1.7-3.9,2.3-6.2,2.8c-9.9,1.9-20,2.2-30.1,2.5l-64.1,1.8"/>
<line class="st2" x1="215.4" y1="197.1" x2="207.2" y2="197.1"/>
<path class="st3" d="M203.3,197.1h-4.1c-0.8-2.2-3.2-3.2-5.4-2.4c-0.1,0-0.1,0-0.2,0.1c0,0-0.6-6.3-8.5-6.3c-7.8,0-8.3,9.4-8.3,9.4
	H174"/>
<line class="st2" x1="46.4" y1="192.1" x2="58.7" y2="192.1"/>
<path class="st3" d="M64.6,192.1h6.1c0,0,2-5.7,8.4-3.5c0,0,1-9.4,12.7-9.4s12.5,14.1,12.5,14.1h6"/>
<path class="st4" d="M255.7,292.8c-4-11.2-15.8-8.3-15.8-8.3l4.7-0.4c0-15.2-14.6-21.4-14.6-21.4l-3-0.9
	c-23.8-9.1-36.9,11.3-36.9,11.3l-0.8,0.8c-8.1-11.6-29.1-10.6-38.2,0.6L157,293L255.7,292.8z"/>
<path class="st4" d="M53.2,292.9c0-12.9,9.2-21.4,20.6-21.4c2.8,0,5.6,0.7,8.1,1.9c5.5-10.1,15.4-16.8,26.6-16.8
	c9.8,0,18.5,5.1,24.2,13c8.7-2.2,18,1.8,23,10.8c2,3.9,3.2,8.1,3.4,12.5"/>
<path class="st4" d="M141.3,292.9H52.8c0-12.9,9.2-21.3,20.6-21.3c2.8,0,5.6,0.6,8.1,1.9c3-5.7,7.6-10.3,13.2-13.4
	C98.6,266.1,113.3,286.5,141.3,292.9z"/>
<path class="st5" d="M144.5,171l-26.8,87c0,0,12.6,5.5,15,11.9c6.4-1.7,13.3,0,18.2,4.5c5.8-6.3,14.1-9.6,22.6-9l-18.6-90.7"/>
<line class="st6" x1="144.5" y1="174.7" x2="121.1" y2="252.3"/>
<path class="st7" d="M142.7,162.7c-0.2,0.2-0.4,0.4-0.5,0.6c-5,5.9-6.1,14.2-3,21.2l5.3,12c0.6,1.1,2,1.6,3.2,0.9
	c0.2-0.1,0.5-0.3,0.7-0.5l9.6-12.3c4.5-5.6,5.7-13.3,3-20l-0.4-0.9"/>
<path class="st8" d="M143.4,162.8c-0.2,0.2-0.4,0.4-0.5,0.6c-5,5.9-6.1,14.1-3,21.2l5.3,12"/>
<path class="st9" d="M145.2,162.9c-0.2,0.1-0.3,0.3-0.4,0.4c-3.8,4.5-4.7,10.8-2.3,16.1l4,9.2c0.5,0.9,1.6,1.2,2.5,0.6
	c0.2-0.1,0.3-0.2,0.4-0.3l7.3-9.4c3.4-4.3,4.3-10.1,2.3-15.2l-0.3-0.7"/>
<path class="st10" d="M146.8,162.9c-0.1,0.1-0.2,0.2-0.3,0.3c-2.7,3.2-3.3,7.6-1.6,11.3l2.8,6.4c0.3,0.6,1.1,0.8,1.7,0.5
	c0.1-0.1,0.2-0.2,0.3-0.3l5.1-6.6c2.4-3,3-7.1,1.6-10.7l-0.2-0.5"/>
<path class="st7" d="M154.4,163.6c-0.2,2.2-1.8,3.9-3.5,3.7c-1.8-0.1-3.1-2.1-2.9-4.3"/>
<path class="st4" d="M135.6,155.2l-0.3,5.1c-0.1,1.1,0.8,2,1.9,2.1l31.6,1.8c1.1,0.1,2-0.7,2.1-1.8l0.3-4.9"/>
<path class="st1" d="M135.9,151.4l-0.3,5.1c-0.1,1.1,0.8,2,1.9,2.1c0,0,0,0,0,0l31.7,1.8c1.1,0.1,2-0.8,2.1-1.9c0,0,0,0,0,0l0.3-4.9
	"/>
<path class="st11" d="M135.6,155.2l-0.3,5.1c-0.1,1.1,0.8,2,1.9,2.1l31.6,1.8c1.1,0.1,2-0.7,2.1-1.8l0.3-4.9"/>
<path class="st11" d="M137.6,178.8c0.3,2,0.8,3.9,1.6,5.7l5.3,12c0.6,1.1,2,1.6,3.2,0.9c0.2-0.1,0.5-0.3,0.7-0.5l9.6-12.3
	c4.5-5.6,5.7-13.3,3-20l-0.4-0.9"/>
<path class="st11" d="M142.7,162.7c-0.2,0.2-0.4,0.4-0.5,0.6c-3,3.5-4.6,8-4.7,12.6"/>
<path class="st12" d="M154.4,163.6c-0.2,2.2-1.8,3.9-3.5,3.7c-1.8-0.1-3.1-2.1-2.9-4.3"/>
<path class="st13" d="M173.2,157.2l-40-2.2c-3.9-0.2-6.8-3.5-6.7-7.4c1-22.9,6.2-88.9,33.9-121.1c23.9,35.1,21.8,101.2,20.2,124.1
	C180.3,154.5,177,157.4,173.2,157.2z"/>
<path class="st1" d="M171.8,50.5l-25.3-1.4l0.1-0.3c0.3-0.6,0.6-1.2,0.9-1.8c0.1-0.2,0.2-0.3,0.2-0.5c0.3-0.6,0.6-1.3,0.9-1.9
	c0.1-0.3,0.3-0.5,0.4-0.8c0.3-0.5,0.5-1.1,0.8-1.6c0,0,0-0.1,0.1-0.1l19.1,1.1C170.1,45.6,170.9,48,171.8,50.5z"/>
<line class="st2" x1="119.2" y1="111.8" x2="117.5" y2="143.3"/>
<line class="st2" x1="120.9" y1="116.6" x2="120.8" y2="118.7"/>
<line class="st2" x1="120.7" y1="120.7" x2="120.6" y2="122.8"/>
<line class="st2" x1="120.5" y1="124.9" x2="120.4" y2="127"/>
<line class="st2" x1="120.3" y1="129" x2="120.1" y2="131.1"/>
<line class="st2" x1="120" y1="133.2" x2="119.9" y2="135.2"/>
<line class="st2" x1="119.8" y1="137.3" x2="119.7" y2="139.3"/>
<path class="st13" d="M130.9,104.1c-12.5,10.3-31.9,15.6-36.3,16.7c-0.6,0.1-1,0.7-1,1.2l-2.9,52.3l0,0c2.6-1.5,4.8-3.7,6.4-6.4
	c2.4-4.1,6.2-10.6,9.8-15.8c2.6-3.7,6.1-6.7,10.1-8.7l10.2-4.9"/>
<polygon class="st1" points="117.5,143.6 115.9,144.5 117.4,112.9 119,111.9 "/>
<line class="st2" x1="192.1" y1="116.2" x2="190.4" y2="147.8"/>
<line class="st2" x1="189.9" y1="120.8" x2="189.8" y2="122.9"/>
<line class="st2" x1="189.6" y1="124.9" x2="189.5" y2="127"/>
<line class="st2" x1="189.4" y1="129.1" x2="189.3" y2="131.2"/>
<line class="st2" x1="189.2" y1="133.2" x2="189.1" y2="135.3"/>
<line class="st2" x1="188.9" y1="137.4" x2="188.8" y2="139.4"/>
<line class="st2" x1="188.7" y1="141.6" x2="188.6" y2="143.5"/>
<path class="st13" d="M181.4,107.3c11.2,11.6,29.9,19,34.3,20.7c0.6,0.2,0.9,0.8,0.9,1.4l-2.9,52.3l0,0c-2.5-1.8-4.4-4.2-5.6-7.1
	c-1.9-4.4-5-11.3-7.9-16.7c-2.1-4-5.3-7.3-9.1-9.7l-9.6-6"/>
<path class="st1" d="M130.4,105.1l0.3,1.1c-0.6,3.7-0.8,6.9-1.2,10.2c-0.1,1.1-0.3,2.6-0.4,3.6c-0.8,6.9-1.5,12.7-1.9,18.5l-4.6,3
	c0.5-8.6,1.6-20.4,3.5-33.3C127.6,107.3,129.1,106.2,130.4,105.1z"/>
<path class="st1" d="M181.2,107.7v0.1c0.7,13.4,0.6,25.6,0.2,34.7l3.6,2.2c0.4-8.6,0.6-20.4,0-33.5
	C183.7,110.2,182.4,109,181.2,107.7z"/>
<rect x="152.7" y="122.8" transform="matrix(5.564729e-02 -0.9985 0.9985 5.564729e-02 -4.3705 294.7727)" class="st14" width="1.8" height="53.8"/>
<path class="st11" d="M133.6,89.9c1.4-6.7,3.1-13.4,5.1-20"/>
<path class="st11" d="M129.1,117.3c0.9-7.3,1.6-13.5,3.2-21.5"/>
<line class="st15" x1="149.5" y1="148.4" x2="180.4" y2="150.1"/>
<line class="st15" x1="143.4" y1="148" x2="146.5" y2="148.2"/>
<line class="st15" x1="126.7" y1="147.1" x2="140.7" y2="147.9"/>
<line class="st15" x1="118.7" y1="121.1" x2="117.5" y2="143.7"/>
<line class="st15" x1="119.2" y1="112.2" x2="118.9" y2="118"/>
<path class="st15" d="M107.6,151.4c2.5-3.2,5.6-5.7,9.2-7.4l10.2-4.9"/>
<path class="st15" d="M98.1,166.4c2.2-3.8,5.2-8.8,8.1-13"/>
<path class="st15" d="M130.9,104.4c-12.5,10.3-31.9,15.6-36.3,16.7c-0.6,0.1-1,0.7-1,1.2l-2.9,52.3l0,0c1.8-1.1,3.5-2.4,4.8-4.1"/>
<line class="st15" x1="191.5" y1="127.5" x2="190.4" y2="147.8"/>
<line class="st15" x1="192.1" y1="116.2" x2="191.7" y2="123.5"/>
<path class="st15" d="M215.5,146.2l-2,35.3l0,0c-2.5-1.8-4.4-4.2-5.6-7.1c-1.9-4.4-5-11.3-7.9-16.7c-2.1-4-5.3-7.3-9.1-9.7l-9.6-6"
	/>
<path class="st15" d="M181.4,107.3c11.2,11.6,29.9,19,34.3,20.7c0.6,0.2,0.9,0.8,0.9,1.4l-0.7,11.8"/>
<line class="st15" x1="137.8" y1="192.1" x2="117.7" y2="258"/>
<line class="st15" x1="158.7" y1="192.1" x2="173.5" y2="265.4"/>
<path class="st16" d="M151,274.4c9.1-11.3,30.7-13,39.1,0.8"/>
<path class="st16" d="M190.1,273c0,0,13.1-20.3,36.9-11.3"/>
<path class="st16" d="M230,262.7c0,0,14.6,6.2,14.6,21.4"/>
<path class="st16" d="M240,284.4c0,0,11.8-2.9,15.8,8.3"/>
<path class="st16" d="M64.6,192.1h6.1c0,0,2-5.7,8.4-3.5c0,0,1-9.4,12.7-9.4s12.5,14.1,12.5,14.1h6.4"/>
<line class="st16" x1="215.4" y1="197.1" x2="207.2" y2="197.1"/>
<path class="st16" d="M203.3,197.1h-4.1c-0.8-2.2-3.2-3.2-5.4-2.4c-0.1,0-0.1,0-0.2,0.1c0,0-0.6-6.3-8.5-6.3c-7.8,0-8.3,9.4-8.3,9.4
	h-4.3"/>
<line class="st17" x1="139.3" y1="68" x2="139.7" y2="66.8"/>
<line class="st11" x1="133.1" y1="91.8" x2="132.9" y2="93.1"/>
<circle class="st18" cx="96.8" cy="168.6" r="0.5"/>
<path class="st11" d="M140.2,65.2c4.8-14.6,11.4-28.3,20.2-38.5c23.9,35,21.8,101.2,20.2,124.1c-0.3,3.9-3.6,6.8-7.4,6.6l-40-2.2
	c-3.9-0.2-6.8-3.5-6.7-7.4c0.3-6.4,0.9-16.3,2.2-27.8"/>
<line class="st19" x1="163.2" y1="42.9" x2="169.1" y2="43.2"/>
<line class="st19" x1="155.5" y1="42.4" x2="161.9" y2="42.8"/>
<line class="st19" x1="149.9" y1="42.1" x2="153.6" y2="42.3"/>
<line class="st15" x1="28.3" y1="293" x2="280.5" y2="293"/>
<path class="st16" d="M174.3,270.1c0,0,11,2.7,12.4,11.2c0,0,8.3-1.8,16.7,5.1"/>
<line class="st15" x1="113.9" y1="134.8" x2="113.1" y2="146"/>
<line class="st16" x1="113.4" y1="193.2" x2="115.6" y2="193.2"/>
<line class="st16" x1="168.8" y1="197.9" x2="171" y2="197.9"/>
<circle class="st20" cx="156.5" cy="104.1" r="13.2"/>
</svg>
