<?xml version="1.0" encoding="utf-8"?>
<!-- Generator: Adobe Illustrator 25.2.0, SVG Export Plug-In . SVG Version: 6.00 Build 0)  -->
<svg version="1.1" id="Layer_1" xmlns="http://www.w3.org/2000/svg" xmlns:xlink="http://www.w3.org/1999/xlink" x="0px" y="0px"
	 viewBox="0 0 138 27.7" style="enable-background:new 0 0 138 27.7;" xml:space="preserve">
<style type="text/css">
	.st0{fill:#FFFFFF;}
	.st1{fill:url(#SVGID_1_);}
</style>
<g>
	<path class="st0" d="M44.7,20.5c-1-0.4-1.8-1-2.4-1.8c-0.6-0.8-0.9-1.7-0.9-2.8h3.8c0.1,0.7,0.3,1.3,0.8,1.7
		c0.5,0.4,1.1,0.6,1.9,0.6c0.8,0,1.5-0.2,2-0.6c0.5-0.4,0.7-0.9,0.7-1.6c0-0.5-0.2-1-0.5-1.3c-0.3-0.3-0.7-0.6-1.2-0.8
		c-0.5-0.2-1.2-0.4-2-0.7c-1.2-0.3-2.1-0.7-2.8-1c-0.7-0.3-1.3-0.8-1.9-1.5c-0.5-0.7-0.8-1.6-0.8-2.7c0-1.1,0.3-2,0.8-2.8
		c0.5-0.8,1.3-1.4,2.2-1.8c1-0.4,2-0.6,3.3-0.6c1.8,0,3.3,0.4,4.5,1.3C53.4,5.2,54,6.4,54.1,8h-3.9c0-0.6-0.3-1.1-0.8-1.5
		c-0.5-0.4-1.1-0.6-1.9-0.6c-0.7,0-1.3,0.2-1.7,0.5c-0.4,0.4-0.6,0.9-0.6,1.6c0,0.5,0.2,0.9,0.5,1.2c0.3,0.3,0.7,0.6,1.2,0.8
		c0.5,0.2,1.1,0.4,2,0.7c1.2,0.3,2.1,0.7,2.8,1c0.7,0.3,1.4,0.9,1.9,1.5c0.5,0.7,0.8,1.6,0.8,2.7c0,1-0.2,1.8-0.7,2.7
		c-0.5,0.8-1.2,1.5-2.2,2c-1,0.5-2.1,0.7-3.4,0.7C46.8,21.2,45.7,21,44.7,20.5z"/>
	<path class="st0" d="M61.6,9.8v6.8c0,0.5,0.1,0.8,0.3,1c0.2,0.2,0.6,0.3,1.2,0.3h1.7v3h-2.2c-3,0-4.5-1.5-4.5-4.4V9.8h-1.7V6.9H58
		V3.4h3.6v3.5h3.2v2.9H61.6z"/>
	<path class="st0" d="M80.6,6.9V21h-3.6v-1.8c-0.5,0.6-1.1,1.1-1.8,1.4c-0.7,0.3-1.5,0.5-2.4,0.5c-1.1,0-2.1-0.2-2.9-0.7
		s-1.5-1.2-2-2.1c-0.5-0.9-0.7-2-0.7-3.3V6.9h3.6v7.8c0,1.1,0.3,2,0.8,2.6s1.3,0.9,2.3,0.9c1,0,1.8-0.3,2.3-0.9
		c0.6-0.6,0.8-1.5,0.8-2.6V6.9H80.6z"/>
	<path class="st0" d="M96.1,8.3c1,1.1,1.6,2.5,1.6,4.5V21h-3.6v-7.8c0-1.1-0.3-2-0.8-2.6c-0.6-0.6-1.3-0.9-2.3-0.9
		c-1,0-1.8,0.3-2.3,0.9c-0.6,0.6-0.9,1.5-0.9,2.6V21h-3.6V6.9h3.6v1.8c0.5-0.6,1.1-1.1,1.8-1.4c0.7-0.3,1.6-0.5,2.4-0.5
		C93.7,6.7,95,7.2,96.1,8.3z"/>
	<path class="st0" d="M104.6,2.1V21H101V2.1H104.6z"/>
	<path class="st0" d="M121.6,6.9l-8.7,20.8h-3.8l3.1-7l-5.7-13.8h4l3.6,9.9l3.7-9.9H121.6z"/>
</g>
<g>
	<linearGradient id="SVGID_1_" gradientUnits="userSpaceOnUse" x1="30.307" y1="-1.955" x2="2.8343" y2="25.5178">
		<stop  offset="0" style="stop-color:#F26140"/>
		<stop  offset="0" style="stop-color:#F36848"/>
		<stop  offset="0" style="stop-color:#F47A5E"/>
		<stop  offset="0" style="stop-color:#F69782"/>
		<stop  offset="0" style="stop-color:#FAC1B4"/>
		<stop  offset="0" style="stop-color:#FEF5F3"/>
		<stop  offset="0" style="stop-color:#FFFFFF"/>
		<stop  offset="0" style="stop-color:#FFFBFA"/>
		<stop  offset="0" style="stop-color:#FEF0ED"/>
		<stop  offset="0" style="stop-color:#FCDDD6"/>
		<stop  offset="0" style="stop-color:#FAC2B6"/>
		<stop  offset="0" style="stop-color:#F7A08D"/>
		<stop  offset="0" style="stop-color:#F4765C"/>
		<stop  offset="0" style="stop-color:#F25F40"/>
		<stop  offset="0.195" style="stop-color:#F35B44"/>
		<stop  offset="0.4049" style="stop-color:#F44E50"/>
		<stop  offset="0.6216" style="stop-color:#F73864"/>
		<stop  offset="0.8417" style="stop-color:#FB1A80"/>
		<stop  offset="1" style="stop-color:#FF0098"/>
	</linearGradient>
	<path class="st1" d="M32.7,0.5l-6.5,6.5H10.9c-0.2,0-0.4,0.1-0.6,0.2c-0.2,0.2-0.2,0.3-0.2,0.6c0,0.2,0.1,0.4,0.2,0.6
		c0.2,0.2,0.3,0.2,0.6,0.2h11.3c2,0,3.7,0.7,5.1,2.1c1.4,1.4,2.1,3.1,2.1,5.1c0,2-0.7,3.7-2.1,5.1c-1.4,1.4-3.1,2.1-5.1,2.1H0.4
		l6.5-6.5h15.4c0.2,0,0.4-0.1,0.6-0.2C23,16.2,23,16,23,15.8c0-0.2-0.1-0.4-0.2-0.6c-0.2-0.2-0.3-0.2-0.6-0.2H10.9
		c-2,0-3.7-0.7-5.1-2.1c-1.4-1.4-2.1-3.1-2.1-5.1c0-2,0.7-3.7,2.1-5.1c1.4-1.4,3.1-2.1,5.1-2.1H32.7z"/>
</g>
</svg>
