<?xml version="1.0" encoding="utf-8"?>
<!-- Generator: Adobe Illustrator 25.2.0, SVG Export Plug-In . SVG Version: 6.00 Build 0)  -->
<svg version="1.1" id="Layer_1" xmlns="http://www.w3.org/2000/svg" xmlns:xlink="http://www.w3.org/1999/xlink" x="0px" y="0px"
	 viewBox="0 0 138 27.9" style="enable-background:new 0 0 138 27.9;" xml:space="preserve">
<style type="text/css">
	.st0{fill:url(#SVGID_1_);}
</style>
<g>
	<path d="M43.7,20.5c-1-0.4-1.9-1.1-2.5-1.9s-0.9-1.8-1-3h4.6c0.1,0.7,0.3,1.2,0.7,1.5s0.9,0.5,1.5,0.5c0.6,0,1.2-0.1,1.5-0.4
		c0.4-0.3,0.6-0.7,0.6-1.2c0-0.4-0.1-0.8-0.4-1.1c-0.3-0.3-0.7-0.5-1.1-0.7c-0.4-0.2-1-0.4-1.8-0.6c-1.2-0.4-2.1-0.7-2.8-1.1
		s-1.4-0.9-1.9-1.6c-0.5-0.7-0.8-1.6-0.8-2.7c0-1.7,0.6-3,1.8-3.9c1.2-0.9,2.8-1.4,4.7-1.4c2,0,3.6,0.5,4.8,1.4
		c1.2,0.9,1.9,2.3,1.9,3.9h-4.7c0-0.6-0.2-1-0.6-1.4c-0.4-0.3-0.9-0.5-1.5-0.5c-0.5,0-1,0.1-1.3,0.4C45,7,44.9,7.4,44.9,8
		c0,0.6,0.3,1,0.8,1.4c0.5,0.3,1.4,0.7,2.5,1c1.2,0.4,2.1,0.8,2.8,1.1c0.7,0.4,1.3,0.9,1.9,1.6c0.5,0.7,0.8,1.6,0.8,2.6
		c0,1-0.3,1.9-0.8,2.8c-0.5,0.8-1.3,1.5-2.3,2c-1,0.5-2.2,0.7-3.5,0.7C45.9,21.2,44.7,21,43.7,20.5z"/>
	<path d="M64.3,17.3V21h-2.2c-1.6,0-2.8-0.4-3.7-1.2c-0.9-0.8-1.3-2-1.3-3.8v-5.7h-1.7V6.8h1.7V3.3h4.4v3.5h2.9v3.6h-2.9v5.7
		c0,0.4,0.1,0.7,0.3,0.9c0.2,0.2,0.5,0.3,1,0.3H64.3z"/>
	<path d="M80.8,6.8V21h-4.4V19c-0.4,0.6-1,1.1-1.8,1.5c-0.8,0.4-1.6,0.6-2.5,0.6c-1.1,0-2-0.2-2.9-0.7c-0.8-0.5-1.5-1.2-1.9-2.1
		s-0.7-2-0.7-3.2V6.8H71v7.7c0,1,0.2,1.7,0.7,2.2s1.2,0.8,2,0.8c0.8,0,1.5-0.3,2-0.8s0.7-1.3,0.7-2.2V6.8H80.8z"/>
	<path d="M96.6,8.2c1,1.1,1.5,2.6,1.5,4.5V21h-4.3v-7.7c0-1-0.2-1.7-0.7-2.2c-0.5-0.5-1.2-0.8-2-0.8s-1.5,0.3-2,0.8
		c-0.5,0.5-0.7,1.3-0.7,2.2V21h-4.4V6.8h4.4v1.9c0.4-0.6,1-1.1,1.8-1.5c0.7-0.4,1.6-0.5,2.5-0.5C94.3,6.6,95.6,7.1,96.6,8.2z"/>
	<path d="M105.5,2.1V21h-4.4V2.1H105.5z"/>
	<path d="M123.2,6.8l-8.9,21h-4.7l3.3-7.2L107,6.8h4.9l3.3,8.9l3.3-8.9H123.2z"/>
</g>
<g>
	<linearGradient id="SVGID_1_" gradientUnits="userSpaceOnUse" x1="30.307" y1="-1.955" x2="2.8343" y2="25.5178">
		<stop  offset="0" style="stop-color:#F26140"/>
		<stop  offset="0" style="stop-color:#F36848"/>
		<stop  offset="0" style="stop-color:#F47A5E"/>
		<stop  offset="0" style="stop-color:#F69782"/>
		<stop  offset="0" style="stop-color:#FAC1B4"/>
		<stop  offset="0" style="stop-color:#FEF5F3"/>
		<stop  offset="0" style="stop-color:#FFFFFF"/>
		<stop  offset="0" style="stop-color:#FFFBFA"/>
		<stop  offset="0" style="stop-color:#FEF0ED"/>
		<stop  offset="0" style="stop-color:#FCDDD6"/>
		<stop  offset="0" style="stop-color:#FAC2B6"/>
		<stop  offset="0" style="stop-color:#F7A08D"/>
		<stop  offset="0" style="stop-color:#F4765C"/>
		<stop  offset="0" style="stop-color:#F25F40"/>
		<stop  offset="0.195" style="stop-color:#F35B44"/>
		<stop  offset="0.4049" style="stop-color:#F44E50"/>
		<stop  offset="0.6216" style="stop-color:#F73864"/>
		<stop  offset="0.8417" style="stop-color:#FB1A80"/>
		<stop  offset="1" style="stop-color:#FF0098"/>
	</linearGradient>
	<path class="st0" d="M32.7,0.5l-6.5,6.5H10.9c-0.2,0-0.4,0.1-0.6,0.2c-0.2,0.2-0.2,0.3-0.2,0.6c0,0.2,0.1,0.4,0.2,0.6
		c0.2,0.2,0.3,0.2,0.6,0.2h11.3c2,0,3.7,0.7,5.1,2.1c1.4,1.4,2.1,3.1,2.1,5.1c0,2-0.7,3.7-2.1,5.1c-1.4,1.4-3.1,2.1-5.1,2.1H0.4
		l6.5-6.5h15.4c0.2,0,0.4-0.1,0.6-0.2C23,16.2,23,16,23,15.8c0-0.2-0.1-0.4-0.2-0.6c-0.2-0.2-0.3-0.2-0.6-0.2H10.9
		c-2,0-3.7-0.7-5.1-2.1c-1.4-1.4-2.1-3.1-2.1-5.1c0-2,0.7-3.7,2.1-5.1c1.4-1.4,3.1-2.1,5.1-2.1H32.7z"/>
</g>
</svg>
